<?xml version="1.0" encoding="UTF-8"?>
<svg width="35px" height="35px" viewBox="0 0 35 35" version="1.1" xmlns="http://www.w3.org/2000/svg" xmlns:xlink="http://www.w3.org/1999/xlink">
    <!-- Generator: Sketch 42 (36781) - http://www.bohemiancoding.com/sketch -->
    <title>envelope-square - FontAwesome</title>
    <desc>Created with Sketch.</desc>
    <defs></defs>
    <g id="Symbols" stroke="none" stroke-width="1" fill="none" fill-rule="evenodd">
        <g id="Footer" transform="translate(-916.000000, -207.000000)" fill="#3C424F">
            <g id="Group-7" transform="translate(916.000000, 147.000000)">
                <path d="M27.8571429,60.5714286 C29.627985,60.5714286 31.1421068,61.2001425 32.3995536,62.4575893 C33.6570003,63.715036 34.2857143,65.2291578 34.2857143,67 L34.2857143,88.4285714 C34.2857143,90.1994136 33.6570003,91.7135354 32.3995536,92.9709821 C31.1421068,94.2284289 29.627985,94.8571429 27.8571429,94.8571429 L6.42857143,94.8571429 C4.65772924,94.8571429 3.14360748,94.2284289 1.88616071,92.9709821 C0.628713951,91.7135354 0,90.1994136 0,88.4285714 L0,67 C0,65.2291578 0.628713951,63.715036 1.88616071,62.4575893 C3.14360748,61.2001425 4.65772924,60.5714286 6.42857143,60.5714286 L27.8571429,60.5714286 Z M28.5714286,84.1428571 L28.5714286,74.4107143 C28.1101167,74.9315502 27.633931,75.3407723 27.1428571,75.6383929 C26.6369022,75.9657754 25.651049,76.5982096 24.1852679,77.5357143 C22.7194867,78.473219 21.5922658,79.2098188 20.8035714,79.7455357 C19.3452308,80.7723266 18.1250049,81.2857143 17.1428571,81.2857143 C16.1607094,81.2857143 14.9404835,80.7723266 13.4821429,79.7455357 C12.7976156,79.2693429 11.7447988,78.5811057 10.3236607,77.6808036 C8.90252266,76.7805015 7.8422654,76.0922643 7.14285714,75.6160714 C6.96428482,75.4970232 6.71875156,75.2961324 6.40625,75.0133929 C6.09374844,74.7306533 5.86309598,74.5297625 5.71428571,74.4107143 L5.71428571,84.1428571 C5.71428571,84.7380982 5.92261696,85.2440455 6.33928571,85.6607143 C6.75595446,86.077383 7.26190179,86.2857143 7.85714286,86.2857143 L26.4285714,86.2857143 C27.0238125,86.2857143 27.5297598,86.077383 27.9464286,85.6607143 C28.3630973,85.2440455 28.5714286,84.7380982 28.5714286,84.1428571 Z M28.5714286,71.3526786 C28.5714286,70.7425565 28.3668175,70.2217283 27.9575893,69.7901786 C27.548361,69.3586288 27.0386935,69.1428571 26.4285714,69.1428571 L7.85714286,69.1428571 C7.26190179,69.1428571 6.75595446,69.3511884 6.33928571,69.7678571 C5.92261696,70.1845259 5.71428571,70.6904732 5.71428571,71.2857143 C5.71428571,71.8363123 5.94121797,72.405503 6.39508929,72.9933036 C6.8489606,73.5811041 7.35118772,74.06101 7.90178571,74.4330357 C8.60119397,74.9092286 9.62424922,75.5714243 10.9709821,76.4196429 C12.3177151,77.2678614 13.2812471,77.8854147 13.8616071,78.2723214 C13.9062502,78.3020835 14.0327371,78.3876481 14.2410714,78.5290179 C14.4494058,78.6703876 14.6056542,78.7745532 14.7098214,78.8415179 C14.8139886,78.9084825 14.9702371,79.0052077 15.1785714,79.1316964 C15.3869058,79.2581852 15.5617552,79.3549104 15.703125,79.421875 C15.8444948,79.4888396 16.0044634,79.5595234 16.1830357,79.6339286 C16.361608,79.7083337 16.5290171,79.7641367 16.6852679,79.8013393 C16.8415186,79.8385419 16.9940469,79.8571429 17.1428571,79.8571429 C17.2916674,79.8571429 17.4441956,79.8385419 17.6004464,79.8013393 C17.7566972,79.7641367 17.9241062,79.7083337 18.1026786,79.6339286 C18.2812509,79.5595234 18.4412195,79.4888396 18.5825893,79.421875 C18.723959,79.3549104 18.8988085,79.2581852 19.1071429,79.1316964 C19.3154772,79.0052077 19.4717257,78.9084825 19.5758929,78.8415179 C19.68006,78.7745532 19.8363085,78.6703876 20.0446429,78.5290179 C20.2529772,78.3876481 20.3794641,78.3020835 20.4241071,78.2723214 L26.3839286,74.3883929 C26.9047645,74.0461292 27.3995512,73.5811041 27.8683036,72.9933036 C28.3370559,72.405503 28.5714286,71.8586335 28.5714286,71.3526786 Z" id="envelope-square---FontAwesome"></path>
            </g>
        </g>
    </g>
</svg>