<?xml version="1.0" encoding="UTF-8"?>
<svg width="35px" height="35px" viewBox="0 0 35 35" version="1.1" xmlns="http://www.w3.org/2000/svg" xmlns:xlink="http://www.w3.org/1999/xlink">
    <!-- Generator: Sketch 42 (36781) - http://www.bohemiancoding.com/sketch -->
    <title>instagram - fontawesome</title>
    <desc>Created with Sketch.</desc>
    <defs></defs>
    <g id="Symbols" stroke="none" stroke-width="1" fill="none" fill-rule="evenodd">
        <g id="Footer" transform="translate(-916.000000, -327.000000)" fill="#3C424F">
            <g id="Group-7" transform="translate(916.000000, 147.000000)">
                <path d="M30.4017857,209.544643 L30.4017857,195.080357 L27.3883929,195.080357 C27.6860134,196.017862 27.8348214,196.992554 27.8348214,198.004464 C27.8348214,199.879474 27.3586357,201.609367 26.40625,203.194196 C25.4538643,204.779026 24.1592344,206.032733 22.5223214,206.955357 C20.8854085,207.877981 19.0997121,208.339286 17.1651786,208.339286 C14.2336163,208.339286 11.7262009,207.331111 9.64285714,205.314732 C7.55951339,203.298353 6.51785714,200.861621 6.51785714,198.004464 C6.51785714,196.992554 6.66666518,196.017862 6.96428571,195.080357 L3.81696429,195.080357 L3.81696429,209.544643 C3.81696429,209.93155 3.94717132,210.255207 4.20758929,210.515625 C4.46800725,210.776043 4.79166473,210.90625 5.17857143,210.90625 L29.0401786,210.90625 C29.4122042,210.90625 29.7321415,210.776043 30,210.515625 C30.2678585,210.255207 30.4017857,209.93155 30.4017857,209.544643 Z M24.0625,197.647321 C24.0625,195.802074 23.3891436,194.228429 22.0424107,192.926339 C20.6956778,191.624249 19.06995,190.973214 17.1651786,190.973214 C15.2752882,190.973214 13.6570008,191.624249 12.3102679,192.926339 C10.9635349,194.228429 10.2901786,195.802074 10.2901786,197.647321 C10.2901786,199.492569 10.9635349,201.066214 12.3102679,202.368304 C13.6570008,203.670393 15.2752882,204.321429 17.1651786,204.321429 C19.06995,204.321429 20.6956778,203.670393 22.0424107,202.368304 C23.3891436,201.066214 24.0625,199.492569 24.0625,197.647321 Z M30.4017857,189.611607 L30.4017857,185.928571 C30.4017857,185.511903 30.2529777,185.151043 29.9553571,184.845982 C29.6577366,184.540921 29.2931569,184.388393 28.8616071,184.388393 L24.9776786,184.388393 C24.5461288,184.388393 24.1815491,184.540921 23.8839286,184.845982 C23.586308,185.151043 23.4375,185.511903 23.4375,185.928571 L23.4375,189.611607 C23.4375,190.043157 23.586308,190.407737 23.8839286,190.705357 C24.1815491,191.002978 24.5461288,191.151786 24.9776786,191.151786 L28.8616071,191.151786 C29.2931569,191.151786 29.6577366,191.002978 29.9553571,190.705357 C30.2529777,190.407737 30.4017857,190.043157 30.4017857,189.611607 Z M34.2857143,184.96875 L34.2857143,210.459821 C34.2857143,211.665185 33.854171,212.6994 32.9910714,213.5625 C32.1279719,214.4256 31.093756,214.857143 29.8883929,214.857143 L4.39732143,214.857143 C3.19195826,214.857143 2.15774241,214.4256 1.29464286,213.5625 C0.431543304,212.6994 0,211.665185 0,210.459821 L0,184.96875 C0,183.763387 0.431543304,182.729171 1.29464286,181.866071 C2.15774241,181.002972 3.19195826,180.571429 4.39732143,180.571429 L29.8883929,180.571429 C31.093756,180.571429 32.1279719,181.002972 32.9910714,181.866071 C33.854171,182.729171 34.2857143,183.763387 34.2857143,184.96875 Z" id="instagram---fontawesome"></path>
            </g>
        </g>
    </g>
</svg>