<?xml version="1.0" encoding="UTF-8"?>
<svg width="35px" height="35px" viewBox="0 0 35 35" version="1.1" xmlns="http://www.w3.org/2000/svg" xmlns:xlink="http://www.w3.org/1999/xlink">
    <!-- Generator: Sketch 42 (36781) - http://www.bohemiancoding.com/sketch -->
    <title>lastfm-square - FontAwesome</title>
    <desc>Created with Sketch.</desc>
    <defs></defs>
    <g id="Symbols" stroke="none" stroke-width="1" fill="none" fill-rule="evenodd">
        <g id="Footer" transform="translate(-916.000000, -387.000000)" fill="#3C424F">
            <g id="Group-7" transform="translate(916.000000, 147.000000)">
                <path d="M31.9642857,261.196429 C31.9642857,258.622011 30.2232317,256.843755 26.7410714,255.861607 C26.2202355,255.712797 25.8258942,255.59003 25.5580357,255.493304 C25.2901772,255.396577 25.007442,255.210567 24.7098214,254.935268 C24.4122009,254.659969 24.1964292,254.31399 24.0625,253.897321 C24.0625,253.867559 24.0476192,253.804316 24.0178571,253.707589 C23.9880951,253.610863 23.9657739,253.521578 23.9508929,253.439732 C23.9360118,253.357886 23.9285714,253.302083 23.9285714,253.272321 C23.9285714,252.736604 24.1108613,252.293901 24.4754464,251.944196 C24.8400316,251.594492 25.2901759,251.419643 25.8258929,251.419643 C26.6294683,251.419643 27.1577368,251.531249 27.4107143,251.754464 L27.3883929,251.754464 C27.6860134,251.97768 27.9761891,252.35714 28.2589286,252.892857 L30.3348214,251.308036 C29.7544614,250.50446 29.3898817,250.028275 29.2410714,249.879464 C28.7499975,249.447915 28.2477704,249.157739 27.734375,249.008929 C27.2209796,248.860118 26.5848252,248.785714 25.8258929,248.785714 C24.6354107,248.785714 23.5788737,249.213537 22.65625,250.069196 C21.7336263,250.924855 21.2723214,251.947911 21.2723214,253.138393 C21.2723214,253.24256 21.2872022,253.413689 21.3169643,253.651786 C21.5550607,255.080364 22.0349666,256.122021 22.7566964,256.776786 C23.4784262,257.431551 24.5833259,257.9747 26.0714286,258.40625 C26.5029783,258.525298 26.867558,258.640624 27.1651786,258.752232 C27.4627991,258.86384 27.7976172,259.023808 28.1696429,259.232143 C28.5416685,259.440477 28.828124,259.697171 29.0290179,260.002232 C29.2299117,260.307293 29.3303571,260.653272 29.3303571,261.040179 L29.3303571,261.151786 C29.3452382,262.014885 29.0439019,262.706843 28.4263393,263.227679 C27.8087767,263.748515 27.0610163,264.008929 26.1830357,264.008929 C24.7395761,264.008929 23.497029,262.937511 22.4553571,260.794643 C22.1130935,260.095235 21.7299128,259.191226 21.3058036,258.082589 C20.8816943,256.973953 20.524555,256.040182 20.234375,255.28125 C19.944195,254.522318 19.5424133,253.700153 19.0290179,252.814732 C18.5156224,251.929311 17.9650327,251.218753 17.3772321,250.683036 C16.7894316,250.147319 16.01935,249.697174 15.0669643,249.332589 C14.1145786,248.968004 13.0208395,248.785714 11.7857143,248.785714 C10.2827306,248.785714 8.85417344,249.202377 7.5,250.035714 C6.14582656,250.869052 5.07440871,251.970231 4.28571429,253.339286 C3.49701987,254.70834 3.12499978,256.136897 3.16964286,257.625 L3.16964286,257.647321 C3.22916696,259.254472 3.60490725,260.735112 4.296875,262.089286 C4.98884275,263.443459 5.98213638,264.540918 7.27678571,265.381696 C8.57143504,266.222474 10.0297538,266.642857 11.6517857,266.642857 C14.4196567,266.642857 16.4955288,265.824413 17.8794643,264.1875 C18.1770848,263.785712 18.4077373,263.406252 18.5714286,263.049107 L17.2321429,260.616071 C16.6071397,261.806554 15.87054,262.66964 15.0223214,263.205357 C14.1741029,263.741074 13.0878042,264.008929 11.7633929,264.008929 C10.0520748,264.008929 8.63095804,263.361614 7.5,262.066964 C6.36904196,260.772315 5.80357143,259.254473 5.80357143,257.513393 C5.80357143,255.950885 6.41368437,254.544649 7.63392857,253.294643 C8.85417277,252.044637 10.2380875,251.419643 11.7857143,251.419643 C13.4523893,251.419643 14.7172576,251.817704 15.5803571,252.613839 C16.4434567,253.409974 17.2172585,254.693444 17.9017857,256.464286 C18.0208339,256.776787 18.2105642,257.286455 18.4709821,257.993304 C18.7314001,258.700152 18.9434516,259.269343 19.1071429,259.700893 C19.2708342,260.132443 19.5052068,260.686753 19.8102679,261.363839 C20.1153289,262.040926 20.4017844,262.591516 20.6696429,263.015625 C20.9375013,263.439734 21.2760396,263.904759 21.6852679,264.410714 C22.0944961,264.916669 22.5074384,265.314731 22.9241071,265.604911 C23.3407759,265.895091 23.8318424,266.140624 24.3973214,266.341518 C24.9628004,266.542412 25.5580326,266.642857 26.1830357,266.642857 C27.7753056,266.642857 29.1368991,266.125749 30.2678571,265.091518 C31.3988152,264.057286 31.9642857,262.758936 31.9642857,261.196429 Z M34.2857143,247 L34.2857143,268.428571 C34.2857143,270.199414 33.6570003,271.713535 32.3995536,272.970982 C31.1421068,274.228429 29.627985,274.857143 27.8571429,274.857143 L6.42857143,274.857143 C4.65772924,274.857143 3.14360748,274.228429 1.88616071,272.970982 C0.628713951,271.713535 0,270.199414 0,268.428571 L0,247 C0,245.229158 0.628713951,243.715036 1.88616071,242.457589 C3.14360748,241.200143 4.65772924,240.571429 6.42857143,240.571429 L27.8571429,240.571429 C29.627985,240.571429 31.1421068,241.200143 32.3995536,242.457589 C33.6570003,243.715036 34.2857143,245.229158 34.2857143,247 Z" id="lastfm-square---FontAwesome"></path>
            </g>
        </g>
    </g>
</svg>