<?xml version="1.0" encoding="UTF-8"?>
<svg width="36px" height="36px" viewBox="0 0 36 36" version="1.1" xmlns="http://www.w3.org/2000/svg" xmlns:xlink="http://www.w3.org/1999/xlink">
    <!-- Generator: Sketch 42 (36781) - http://www.bohemiancoding.com/sketch -->
    <title>linkedin-square - FontAwesome</title>
    <desc>Created with Sketch.</desc>
    <defs></defs>
    <g id="Symbols" stroke="none" stroke-width="1" fill="none" fill-rule="evenodd">
        <g id="Footer" transform="translate(-915.000000, -267.000000)" stroke="#979797" fill="#3C424F">
            <g id="Group-7" transform="translate(916.000000, 147.000000)">
                <path d="M5.29017857,149.276786 L10.4464286,149.276786 L10.4464286,133.785714 L5.29017857,133.785714 L5.29017857,149.276786 Z M10.78125,129.008929 C10.766369,128.235115 10.4985145,127.595241 9.97767857,127.089286 C9.45684263,126.583331 8.76488527,126.330357 7.90178571,126.330357 C7.03868616,126.330357 6.33556819,126.583331 5.79241071,127.089286 C5.24925324,127.595241 4.97767857,128.235115 4.97767857,129.008929 C4.97767857,129.767861 5.24181283,130.404015 5.77008929,130.917411 C6.29836574,131.430806 6.9866029,131.6875 7.83482143,131.6875 L7.85714286,131.6875 C8.73512344,131.6875 9.44196161,131.430806 9.97767857,130.917411 C10.5133955,130.404015 10.78125,129.767861 10.78125,129.008929 Z M18.4375,135.96953 L18.4375,136.040179 L18.3928571,136.040179 C18.4076512,136.016468 18.4225321,135.992918 18.4375,135.96953 L18.4375,135.96953 Z M18.4375,135.96953 L18.4375,133.785714 L13.28125,133.785714 C13.3258931,134.767862 13.3258931,139.931501 13.28125,149.276786 L18.4375,149.276786 L18.4375,140.616071 C18.4375,140.050592 18.4895828,139.63393 18.59375,139.366071 C18.8169654,138.845235 19.1517835,138.402532 19.5982143,138.037946 C20.0446451,137.673361 20.5952348,137.491071 21.25,137.491071 C22.9761991,137.491071 23.8392857,138.659215 23.8392857,140.995536 L23.8392857,149.276786 L28.9955357,149.276786 L28.9955357,140.392857 C28.9955357,138.101179 28.4523864,136.367565 27.3660714,135.191964 C26.2797565,134.016363 24.8437589,133.428571 23.0580357,133.428571 C21.0617775,133.428571 19.5216139,134.275549 18.4375,135.96953 L18.4375,135.96953 Z M34.2857143,127 L34.2857143,148.428571 C34.2857143,150.199414 33.6570003,151.713535 32.3995536,152.970982 C31.1421068,154.228429 29.627985,154.857143 27.8571429,154.857143 L6.42857143,154.857143 C4.65772924,154.857143 3.14360748,154.228429 1.88616071,152.970982 C0.628713951,151.713535 0,150.199414 0,148.428571 L0,127 C0,125.229158 0.628713951,123.715036 1.88616071,122.457589 C3.14360748,121.200143 4.65772924,120.571429 6.42857143,120.571429 L27.8571429,120.571429 C29.627985,120.571429 31.1421068,121.200143 32.3995536,122.457589 C33.6570003,123.715036 34.2857143,125.229158 34.2857143,127 Z" id="linkedin-square---FontAwesome"></path>
            </g>
        </g>
    </g>
</svg>