<?xml version="1.0" encoding="UTF-8"?>
<svg width="43px" height="48px" viewBox="0 0 43 48" version="1.1" xmlns="http://www.w3.org/2000/svg" xmlns:xlink="http://www.w3.org/1999/xlink">
    <!-- Generator: Sketch 42 (36781) - http://www.bohemiancoding.com/sketch -->
    <title>Music - FontAwesome</title>
    <desc>Created with Sketch.</desc>
    <defs></defs>
    <g id="Page-1" stroke="none" stroke-width="1" fill="none" fill-rule="evenodd">
        <g id="Desktop-HD" transform="translate(-561.000000, -1061.000000)" fill="#FFFFFF">
            <g id="Group-4" transform="translate(517.000000, 1058.000000)">
                <path d="M86.9285714,6.39285714 L86.9285714,37.6428571 C86.9285714,38.5729213 86.6123544,39.400666 85.9799107,40.1261161 C85.3474671,40.8515661 84.5476239,41.4142465 83.5803571,41.8141741 C82.6130904,42.2141017 81.6504884,42.5117178 80.6925223,42.7070312 C79.7345562,42.9023447 78.8370578,43 78,43 C77.1629422,43 76.2654438,42.9023447 75.3074777,42.7070312 C74.3495116,42.5117178 73.3869096,42.2141017 72.4196429,41.8141741 C71.4523761,41.4142465 70.6525329,40.8515661 70.0200893,40.1261161 C69.3876456,39.400666 69.0714286,38.5729213 69.0714286,37.6428571 C69.0714286,36.712793 69.3876456,35.8850483 70.0200893,35.1595982 C70.6525329,34.4341482 71.4523761,33.8714678 72.4196429,33.4715402 C73.3869096,33.0716126 74.3495116,32.7739965 75.3074777,32.578683 C76.2654438,32.3833696 77.1629422,32.2857143 78,32.2857143 C79.9531348,32.2857143 81.7388312,32.6484339 83.3571429,33.3738839 L83.3571429,18.390625 L61.9285714,25.0033482 L61.9285714,44.7857143 C61.9285714,45.7157785 61.6123544,46.5435232 60.9799107,47.2689732 C60.3474671,47.9944233 59.5476239,48.5571037 58.5803571,48.9570312 C57.6130904,49.3569588 56.6504884,49.6545749 55.6925223,49.8498884 C54.7345562,50.0452019 53.8370578,50.1428571 53,50.1428571 C52.1629422,50.1428571 51.2654438,50.0452019 50.3074777,49.8498884 C49.3495116,49.6545749 48.3869096,49.3569588 47.4196429,48.9570312 C46.4523761,48.5571037 45.6525329,47.9944233 45.0200893,47.2689732 C44.3876456,46.5435232 44.0714286,45.7157785 44.0714286,44.7857143 C44.0714286,43.8556501 44.3876456,43.0279054 45.0200893,42.3024554 C45.6525329,41.5770053 46.4523761,41.0143249 47.4196429,40.6143973 C48.3869096,40.2144697 49.3495116,39.9168537 50.3074777,39.7215402 C51.2654438,39.5262267 52.1629422,39.4285714 53,39.4285714 C54.9531348,39.4285714 56.7388312,39.791291 58.3571429,40.5167411 L58.3571429,13.5357143 C58.3571429,12.9590745 58.5338524,12.4335961 58.8872768,11.9592634 C59.2407012,11.4849307 59.6964258,11.1547628 60.2544643,10.96875 L83.46875,3.82589286 C83.6919654,3.75148772 83.9523795,3.71428571 84.25,3.71428571 C84.9940513,3.71428571 85.6264855,3.97469978 86.1473214,4.49553571 C86.6681574,5.01637165 86.9285714,5.6488058 86.9285714,6.39285714 Z" id="Music---FontAwesome"></path>
            </g>
        </g>
    </g>
</svg>