<?xml version="1.0" encoding="UTF-8"?>
<svg width="35px" height="35px" viewBox="0 0 35 35" version="1.1" xmlns="http://www.w3.org/2000/svg" xmlns:xlink="http://www.w3.org/1999/xlink">
    <!-- Generator: Sketch 42 (36781) - http://www.bohemiancoding.com/sketch -->
    <title>phone-square - FontAwesome</title>
    <desc>Created with Sketch.</desc>
    <defs></defs>
    <g id="Symbols" stroke="none" stroke-width="1" fill="none" fill-rule="evenodd">
        <g id="Footer" transform="translate(-916.000000, -147.000000)" fill="#3C424F">
            <g id="Group-7" transform="translate(916.000000, 145.000000)">
                <path d="M28.5714286,26.34375 C28.5714286,26.1800587 28.5565478,26.0610123 28.5267857,25.9866071 C28.4821426,25.8675589 28.1956872,25.6480671 27.6674107,25.328125 C27.1391343,25.0081829 26.4806587,24.639883 25.6919643,24.2232143 L24.5089286,23.5758929 C24.4345234,23.5312498 24.2931558,23.4345246 24.0848214,23.2857143 C23.8764871,23.136904 23.690477,23.025298 23.5267857,22.9508929 C23.3630944,22.8764877 23.206846,22.8392857 23.0580357,22.8392857 C22.7901772,22.8392857 22.4404783,23.0810988 22.0089286,23.5647321 C21.5773788,24.0483655 21.1532759,24.5357118 20.7366071,25.0267857 C20.3199384,25.5178596 19.9925607,25.7633929 19.7544643,25.7633929 C19.6502971,25.7633929 19.5275305,25.7373515 19.3861607,25.6852679 C19.244791,25.6331843 19.1294647,25.5848217 19.0401786,25.5401786 C18.9508924,25.4955355 18.8244056,25.4248517 18.6607143,25.328125 C18.497023,25.2313983 18.3928574,25.1681549 18.3482143,25.1383929 C16.8749926,24.3199364 15.6064041,23.3787256 14.5424107,22.3147321 C13.4784173,21.2507387 12.5372065,19.9821502 11.71875,18.5089286 C11.6889879,18.4642855 11.6257445,18.3601199 11.5290179,18.1964286 C11.4322912,18.0327373 11.3616074,17.9062504 11.3169643,17.8169643 C11.2723212,17.7276781 11.2239586,17.6123519 11.171875,17.4709821 C11.1197914,17.3296124 11.09375,17.2068458 11.09375,17.1026786 C11.09375,16.9092252 11.2462782,16.6599718 11.5513393,16.3549107 C11.8564003,16.0498497 12.1912184,15.7633942 12.5558036,15.4955357 C12.9203887,15.2276772 13.2552068,14.9337814 13.5602679,14.6138393 C13.8653289,14.2938972 14.0178571,14.0223225 14.0178571,13.7991071 C14.0178571,13.6502969 13.9806551,13.4940484 13.90625,13.3303571 C13.8318449,13.1666658 13.7202388,12.9806558 13.5714286,12.7723214 C13.4226183,12.5639871 13.3258931,12.4226194 13.28125,12.3482143 C13.2366069,12.2589281 13.1250009,12.0468767 12.9464286,11.7120536 C12.7678562,11.3772305 12.5818462,11.0386922 12.3883929,10.6964286 C12.1949395,10.354165 11.9977689,10.0007459 11.796875,9.63616071 C11.5959811,9.27157556 11.4099711,8.97023929 11.2388393,8.73214286 C11.0677075,8.49404643 10.9449408,8.3601192 10.8705357,8.33035714 C10.7961306,8.30059509 10.6770842,8.28571429 10.5133929,8.28571429 C9.79910357,8.28571429 9.04762299,8.44940313 8.25892857,8.77678571 C7.57440134,9.08928728 6.9791692,9.79240525 6.47321429,10.8861607 C5.96725937,11.9799162 5.71428571,12.9508886 5.71428571,13.7991071 C5.71428571,14.0372036 5.73288672,14.2901772 5.77008929,14.5580357 C5.80729185,14.8258942 5.84449386,15.0528265 5.88169643,15.2388393 C5.918899,15.4248521 5.98586261,15.6703854 6.08258929,15.9754464 C6.17931596,16.2805075 6.25371998,16.4999993 6.30580357,16.6339286 C6.35788717,16.7678578 6.45089219,17.0133911 6.58482143,17.3705357 C6.71875067,17.7276804 6.80059509,17.9508924 6.83035714,18.0401786 C7.72321875,20.480667 9.33406574,22.8653157 11.6629464,25.1941964 C13.9918271,27.5230771 16.3764759,29.1339241 18.8169643,30.0267857 C18.9062504,30.0565478 19.1294625,30.1383922 19.4866071,30.2723214 C19.8437518,30.4062507 20.089285,30.4992557 20.2232143,30.5513393 C20.3571435,30.6034229 20.5766354,30.6778269 20.8816964,30.7745536 C21.1867575,30.8712802 21.4322907,30.9382439 21.6183036,30.9754464 C21.8043164,31.012649 22.0312487,31.049851 22.2991071,31.0870536 C22.5669656,31.1242561 22.8199393,31.1428571 23.0580357,31.1428571 C23.9062542,31.1428571 24.8772267,30.8898835 25.9709821,30.3839286 C27.0647376,29.8779737 27.7678556,29.2827415 28.0803571,28.5982143 C28.4077397,27.8095199 28.5714286,27.0580393 28.5714286,26.34375 Z M34.2857143,9 L34.2857143,30.4285714 C34.2857143,32.1994136 33.6570003,33.7135354 32.3995536,34.9709821 C31.1421068,36.2284289 29.627985,36.8571429 27.8571429,36.8571429 L6.42857143,36.8571429 C4.65772924,36.8571429 3.14360748,36.2284289 1.88616071,34.9709821 C0.628713951,33.7135354 0,32.1994136 0,30.4285714 L0,9 C0,7.22915781 0.628713951,5.71503605 1.88616071,4.45758929 C3.14360748,3.20014252 4.65772924,2.57142857 6.42857143,2.57142857 L27.8571429,2.57142857 C29.627985,2.57142857 31.1421068,3.20014252 32.3995536,4.45758929 C33.6570003,5.71503605 34.2857143,7.22915781 34.2857143,9 Z" id="phone-square---FontAwesome"></path>
            </g>
        </g>
    </g>
</svg>