<?xml version="1.0" encoding="utf-8"?>
<!-- Generator: Adobe Illustrator 18.1.1, SVG Export Plug-In . SVG Version: 6.00 Build 0)  -->
<svg version="1.1" id="Layer_1" xmlns="http://www.w3.org/2000/svg" xmlns:xlink="http://www.w3.org/1999/xlink" x="0px" y="0px"
	 viewBox="0 0 502.2 346.8" enable-background="new 0 0 502.2 346.8" xml:space="preserve">
<path fill="#EAE278" d="M275.8,75.7v131.1h-254V75.4c11.7-30.8,40.3-55.6,77-67.6h99.8C235.6,19.8,264.2,44.8,275.8,75.7z"/>
<g>
	<path fill="#350333" d="M33.8,358.8v-31c0-55.2,44.8-92,100-92h29c55.2,0,100,36.8,100,92v31H33.8z"/>
	<rect x="33.8" y="336.8" fill="#2C042D" width="229" height="22"/>
</g>
<g>
	<g>
		<path fill="#F7EBD5" d="M148.8,192.8c-11,0-20,5.2-20,11.5s0,15.3,0,20s0,13.7,0,20s9,11.5,20,11.5s20-5.2,20-11.5s0-15.3,0-20
			s0-13.7,0-20S159.8,192.8,148.8,192.8z"/>
	</g>
	<g>
		<path fill="#EFE5D5" d="M148.8,160.8c-11,0-20,5.2-20,11.5s0,15.3,0,20s0,13.7,0,20s9,11.5,20,11.5s20-5.2,20-11.5s0-15.3,0-20
			s0-13.7,0-20S159.8,160.8,148.8,160.8z"/>
	</g>
</g>
<circle fill="#F7EBD5" cx="268" cy="102" r="27"/>
<circle fill="#F7EBD5" cx="27" cy="102" r="27"/>
<g>
	<path fill="#F7EBD5" d="M281.5,106.7c0,10.8-2,21.2-5.7,31c-16.5,43.8-67.2,75.7-127,75.7c-57.1,0-105.8-29-124.5-69.6
		c-0.9-1.9-1.7-3.9-2.5-5.8c-3.8-9.9-5.8-20.4-5.8-31.2s2-21.4,5.8-31.2c11.7-30.8,40.3-55.6,77-67.6c15.4-5,32.3-7.8,49.9-7.8
		c1,0,1.9,0,2.9,0c16.6,0.3,32.4,3,47,7.8c36.9,12,65.5,37,77.1,67.9C279.6,85.5,281.5,95.9,281.5,106.7z"/>
	<path fill="#EFE5D5" d="M275.8,132.7c-16.5,43.8-67.2,75.7-127,75.7c-57.1,0-105.8-29-124.5-69.6c-0.9-1.9-1.7-3.9-2.5-5.8
		c-3.5-9.1-5.4-18.8-5.7-28.7c0,0.8-0.1,1.7-0.1,2.5c0,10.9,2,21.4,5.8,31.2c0.8,2,1.6,3.9,2.5,5.8c18.8,40.6,67.4,69.6,124.5,69.6
		c59.9,0,110.5-31.9,127-75.7c3.7-9.8,5.7-20.2,5.7-31c0-0.8,0-1.7-0.1-2.5C281.2,114.1,279.3,123.7,275.8,132.7z"/>
</g>
<g>
	<circle opacity="0.48" fill="#F1D6F2" cx="225.8" cy="144.8" r="16"/>
	<circle opacity="0.48" fill="#F1D6F2" cx="71.8" cy="144.8" r="16"/>
</g>
<path fill="#EAE278" d="M157.8,2.8c0,0-55.9,105.8-134.6,141c-5.3-11.5-8.2-24-8.2-37.1C15,47.8,74.4,0,147.8,0c1,0,1.9,0,2.9,0
	C153,0.9,155.4,1.8,157.8,2.8z"/>
<path fill="#EAE278" d="M138,2.8c0,0,55.9,105.8,134.6,141c5.3-11.5,8.2-24,8.2-37.1C280.8,47.8,221.4,0,148.1,0c-1,0-1.9,0-2.9,0
	C142.8,0.9,140.4,1.8,138,2.8z"/>
<circle fill="#4D0046" cx="192" cy="114.9" r="8.2"/>
<path fill="none" stroke="#4D0046" stroke-linecap="round" stroke-miterlimit="10" d="M199.9,120.2c0,2.2-3.6,4-8.1,4
	c-4.5,0-8.1-1.8-8.1-4"/>
<circle fill="#4D0046" cx="104" cy="114.9" r="8.2"/>
<path fill="none" stroke="#4D0046" stroke-linecap="round" stroke-miterlimit="10" d="M111.9,120.2c0,2.2-3.6,4-8.1,4
	c-4.5,0-8.1-1.8-8.1-4"/>
<path fill="none" stroke="#4D0046" stroke-width="5" stroke-linecap="round" stroke-miterlimit="10" d="M156.3,148.8
	c0,4.7-3.8,8.5-8.5,8.5c-4.7,0-8.5-3.8-8.5-8.5"/>
<path fill="none" stroke="#4D0046" stroke-width="3" stroke-linecap="round" stroke-miterlimit="10" d="M181.8,94.8
	c0,0,13.5-7.5,26-1"/>
<path fill="none" stroke="#4D0046" stroke-width="3" stroke-linecap="round" stroke-miterlimit="10" d="M115.8,94.8
	c0,0-13.5-7.5-26-1"/>
<path fill="#9B4C37" d="M430.8,329.8v31h-127v-31c0-0.8,0-1.7,0-2.5c0.1-4.7,0.3-9.3,0.8-13.7c0.2-2.7,0.6-5.3,1-7.8
	c0.7-4.6,1.6-9.1,2.7-13.3c0.7-2.6,1.4-5.2,2.2-7.7c9.6-29.3,28.6-47,49.8-47h16.1c21.2,0,39.2,17.7,48.2,47
	c0.8,2.5,1.5,5.2,2.1,7.9c1,4.2,1.8,8.5,2.5,13.1c0.4,2.6,0.7,5.3,0.9,8c0.4,4.2,0.6,8.6,0.7,13.1
	C430.8,327.9,430.8,328.8,430.8,329.8z"/>
<g>
	<path fill="#E8E8C4" d="M393.3,271.5l2.1-2.7l6.5-8.2c4.3-5.4,4.2-11.4,1-16.4c-10.4,3.8-22.3,5.6-34.9,5.6
		c-12.7,0-24.7-1.9-35.2-5.8c-3.2,5-3.3,11.1,1,16.5l6.5,8.3l2.9,3.6c-7.6,4.6-12.3,13.8-12.3,32c0,34.4,17.1,62.4,38.2,62.4
		s38.2-27.9,38.2-62.4C407.3,285,401.8,275.8,393.3,271.5z"/>
	<g>
		<path fill="#E2E1C0" d="M395.4,260.8l-2.1,2.7c1.5,0.7,2.9,1.6,4.2,2.7l4.4-5.6c3.3-4.2,4-8.8,2.7-12.9c-0.5,1.7-1.4,3.3-2.7,4.9
			L395.4,260.8z"/>
		<path fill="#E2E1C0" d="M339.3,267.5c1.2-1.2,2.5-2.2,3.9-3.1l-2.9-3.6l-6.5-8.3c-1.3-1.6-2.1-3.3-2.7-4.9
			c-1.3,4.2-0.6,8.7,2.7,12.9L339.3,267.5z"/>
		<path fill="#E2E1C0" d="M369.1,358.8c-20.3,0-36.9-25.8-38.2-58.3c-0.1,1.3-0.1,2.6-0.1,3.9c0,34.4,17.1,62.4,38.2,62.4
			s38.2-27.9,38.2-62.4c0-1.4,0-2.7-0.1-4C406,333,389.4,358.8,369.1,358.8z"/>
	</g>
</g>
<g>
	<path fill="#9B4C37" d="M439,213.8c0,39.2-31.8,37-71,37c-39.2,0-71.2,2.2-71.2-37c0-12,3-23.4,8-33.3v0c8-13.6,19-24.5,33-31.1
		c2.5-1.2,5.2-2.2,7.9-3.1c2.6-0.8,5.3-1.6,8-2.1c3.1-0.6,6.3-1.1,9.5-1.3c1.6-0.1,3.2-0.2,4.8-0.2c0.8,0,1.5,0,2.3,0
		c3.3,0.1,6.5,0.4,9.7,1c2.7,0.5,5.3,0.8,7.9,1.6c3.4,1,6.7,2.4,9.9,3.4h0c13.9,7,25.3,17.4,32.7,30.8
		C435.9,189.7,439,201.5,439,213.8z"/>
	<path fill="#914839" d="M368,246.8c-38.5,0-70.1,2.1-71.2-35c0,0.7,0,1.3,0,2c0,39.2,32,37,71.2,37c39.2,0,71,2.2,71-37
		c0-0.7,0-1.3,0-2C437.9,248.9,406.6,246.8,368,246.8z"/>
</g>
<path fill="#9B4C37" d="M409.3,169L389,154.2l26.4-14.8l6-2.9c8-3.9,16.5,2.3,15.3,11.2l-0.9,6.5l-6.1,29.6L409.3,169z"/>
<path fill="#9B4C37" d="M326.3,169l20.3-14.8l-26.4-14.8l-6-2.9c-8-3.9-16.5,2.3-15.3,11.2l0.9,6.5l6.1,29.6L326.3,169z"/>
<path fill="#E8E8C4" d="M369.3,219.8h11.3c6.1,0,10.1,7.6,7.5,14.3l-5.7,17.8l-4.6,12.2c-3,7.8-15.1,7.8-18.1,0l-4.6-12.2l-4.7-17.8
	c-2.5-6.7,1.5-14.3,7.5-14.3H369.3z"/>
<g>
	<path fill="#663C35" d="M370.3,142.8c0.3,0.6,0.5,1.2,0.5,2v16c0,2.2-1.8,4-4,4c-2.2,0-4-1.8-4-4v-16c0-0.7,0.2-1.3,0.5-1.8
		L370.3,142.8z"/>
</g>
<g>
	<path fill="#663C35" d="M387.8,145.6v15.2c0,2.2-1.8,4-4,4s-4-1.8-4-4v-16c0-0.4,0-0.7,0.1-1C382.7,144.3,385.3,144.9,387.8,145.6z
		"/>
</g>
<g>
	<path fill="#663C35" d="M353.8,144.8v16c0,2.2-1.8,4-4,4s-4-1.8-4-4v-14.5c2.6-0.8,5.2-1.6,8-2.1
		C353.8,144.4,353.8,144.6,353.8,144.8z"/>
</g>
<g>
	<g>
		<path fill="#663C35" d="M426.8,292.7c-0.3,0.1-0.6,0.1-0.9,0.1h-13c-2.2,0-4-1.8-4-4c0-2.2,1.8-4,4-4h11.8
			C425.4,287.3,426.1,290,426.8,292.7z"/>
	</g>
	<g>
		<path fill="#663C35" d="M430.1,313.8c-0.1,0-0.2,0-0.3,0h-14c-2.2,0-4-1.8-4-4c0-2.2,1.8-4,4-4h13.4
			C429.6,308.4,429.9,311.1,430.1,313.8z"/>
	</g>
	<g>
		<path fill="#663C35" d="M430.8,329.8v4.9c-0.3,0.1-0.7,0.1-1,0.1h-14c-2.2,0-4-1.8-4-4c0-2.2,1.8-4,4-4h14c0.3,0,0.7,0,1,0.1
			C430.8,327.9,430.8,328.8,430.8,329.8z"/>
	</g>
</g>
<g>
	<g>
		<path fill="#663C35" d="M326.8,288.8c0,2.2-1.8,4-4,4h-13c-0.6,0-1.1-0.1-1.6-0.3c0.7-2.6,1.4-5.2,2.2-7.7h12.3
			C325.1,284.8,326.8,286.6,326.8,288.8z"/>
	</g>
	<g>
		<path fill="#663C35" d="M323.8,309.8c0,2.2-1.8,4-4,4h-14c-0.4,0-0.8-0.1-1.2-0.2c0.2-2.7,0.6-5.3,1-7.8c0.1,0,0.2,0,0.3,0h14
			C322.1,305.8,323.8,307.6,323.8,309.8z"/>
	</g>
	<g>
		<path fill="#663C35" d="M323.8,330.8c0,2.2-1.8,4-4,4h-14c-0.7,0-1.4-0.2-2-0.5v-4.5c0-0.8,0-1.7,0-2.5c0.6-0.3,1.3-0.5,2-0.5h14
			C322.1,326.8,323.8,328.6,323.8,330.8z"/>
	</g>
</g>
<ellipse transform="matrix(0.9278 0.3732 -0.3732 0.9278 110.5393 -117.9157)" fill="#B79D74" cx="359.8" cy="226.6" rx="5.2" ry="3.8"/>
<g>
	<circle fill="#001B4C" cx="334.5" cy="201.8" r="10.2"/>
	<circle fill="#001B4C" cx="400.2" cy="201.8" r="10.2"/>
	
		<line fill="none" stroke="#001B4C" stroke-width="4" stroke-linecap="round" stroke-miterlimit="10" x1="368.8" y1="231.8" x2="368.8" y2="224.8"/>
	
		<line fill="none" stroke="#001B4C" stroke-width="4" stroke-linecap="round" stroke-miterlimit="10" x1="374.8" y1="224.8" x2="362.8" y2="224.8"/>
</g>
<g>
	<g>
		<g>
			<path fill="#9B4C37" d="M502.2,302.4c0,0.8,0,1.6-0.1,2.4c-0.1,2.3-0.4,4.7-0.8,7c-0.3,1.7-0.7,3.4-1.1,5.1
				c-0.6,2.4-1.4,4.6-2.2,6.8c-0.6,1.5-1.2,2.9-1.9,4.3c-1,2.2-2.2,4.2-3.3,6.2c-0.5,0.8-0.9,1.5-1.4,2.3c-1.3,2-2.8,4-4.2,5.8
				c-3.3,4.1-6.7,7.6-9.9,10.5c-0.7,0.6-1.3,1.2-2,1.7c-1.2,1.1-2.4,2-3.5,2.8c-0.8,0.6-1.5,1.2-2.2,1.7c-2.2,1.6-3.7,2.5-3.9,2.6
				c-1.6,1-3.3,1.4-5.1,1.4c-3.4,0-6.7-1.8-8.6-4.9c-2.2-3.7-1.7-8.1,0.7-11.3c0.7-0.9,1.6-1.8,2.7-2.4c0,0,1.2-0.7,3-2.1
				c2.2-1.6,5.4-4.2,8.7-7.6c0.3-0.3,0.5-0.6,0.8-0.9c0.5-0.5,1-1.1,1.5-1.7c1.1-1.2,2.1-2.5,3.1-3.9c0.4-0.5,0.8-1.1,1.2-1.7
				c1-1.5,2-3.1,2.9-4.8c1.2-2.1,2.2-4.4,3-6.8c0.1-0.3,0.3-0.7,0.4-1c0.6-1.9,1.1-3.8,1.5-5.8c0.1-0.3,0.1-0.7,0.2-1
				c0.1-0.8,0.2-1.5,0.3-2.3c0.2-2.3,0.2-4.6,0-7c-0.1-1.3-0.3-2.7-0.5-4c0,0,0-0.1,0-0.1c-0.4-2.2-0.9-4.5-1.7-6.8c0,0,0,0,0-0.1
				c-0.5-1.5-1-3-1.7-4.5c-0.9-2.2-2-4.4-3.2-6.6c-0.2-0.3-0.3-0.6-0.5-0.9c-1.3-2.3-2.8-4.7-4.4-7c-1.3-1.9-2.8-3.9-4.4-5.8
				c0,0-0.1-0.1-0.1-0.2c-0.7-0.7-1.8-2.1-3.2-4c-0.6-0.9-1.3-1.9-2-3c-0.8-1.2-1.5-2.5-2.3-4c-0.5-1-1-2-1.5-3
				c-0.6-1.3-1.2-2.8-1.8-4.3c-0.3-0.9-0.6-1.8-0.9-2.7c-0.2-0.8-0.5-1.5-0.7-2.4c-0.2-0.7-0.4-1.5-0.5-2.3
				c-0.7-2.9-1.1-6.2-1.3-9.6c-0.1-2.3,0-4.7,0.2-7.3c0.2-1.8,0.5-3.6,0.8-5.5c0.2-0.8,0.4-1.7,0.6-2.6c0.4-1.4,0.8-2.8,1.3-4.3
				c0.3-0.8,0.6-1.6,0.9-2.4c1.2-3.1,2.7-6.2,4.7-9.4c2.4-4,5.3-8,9-12.1c3.7-4.1,10-4.5,14.1-0.8c4.1,3.7,4.4,10,0.8,14.1
				c-3.2,3.6-5.6,7-7.5,10.4c-1,1.8-1.8,3.6-2.5,5.3c-0.9,2.3-1.5,4.6-1.9,6.8c-0.3,2-0.5,3.9-0.5,5.7c0,0.3,0,0.5,0,0.8
				c0,2.2,0.3,4.3,0.7,6.2c0.1,0.5,0.2,1,0.3,1.4c0.5,2.2,1.2,4.1,2,5.9c1.5,3.4,3.2,6,4.5,7.6c0.9,1.2,1.5,1.9,1.7,2l0.5,0.6
				c1.5,1.9,3,3.8,4.4,5.7c1.7,2.3,3.2,4.7,4.7,7c0.4,0.7,0.8,1.4,1.2,2.1c0.8,1.3,1.5,2.6,2.2,3.9c0.5,0.8,0.9,1.7,1.3,2.5
				c0.7,1.5,1.4,3,2,4.5c1.2,2.9,2.2,5.8,3,8.7c0.3,1.1,0.6,2.2,0.9,3.3c0.3,1.2,0.5,2.3,0.7,3.5c0.2,1.2,0.4,2.3,0.5,3.5
				c0.1,0.5,0.1,1.1,0.2,1.6c0.1,0.8,0.1,1.6,0.2,2.4C502.2,299.3,502.3,300.9,502.2,302.4z"/>
		</g>
	</g>
	<path fill="#663C35" d="M483.6,196.4c-3.2,3.6-5.6,7-7.5,10.4c-0.1,0-0.2,0-0.3,0c-7.5,0-13.9-4.9-16.1-11.6c2.4-4,5.3-8,9-12.1
		c3.7-4.1,10-4.5,14.1-0.8C487,186,487.3,192.3,483.6,196.4z"/>
	<g>
		<path fill="#663C35" d="M473.7,212.1c-0.9,2.3-1.5,4.6-1.9,6.8l-18.9-7.6c0.4-1.4,0.8-2.8,1.3-4.3c0.3-0.8,0.6-1.6,0.9-2.4
			L473.7,212.1z"/>
	</g>
	<g>
		<path fill="#663C35" d="M475.2,354.4c-1.2,1.1-2.4,2-3.5,2.8c-0.8,0.6-1.5,1.2-2.2,1.7l-16.9-12.2c0.7-0.9,1.6-1.8,2.7-2.4
			c0,0,1.2-0.7,3-2.1L475.2,354.4z"/>
	</g>
	<g>
		<path fill="#663C35" d="M491.3,336.4c-1.3,2-2.8,4-4.2,5.8l-19.1-8.5c0.5-0.5,1-1.1,1.5-1.7c1.1-1.2,2.1-2.5,3.1-3.9L491.3,336.4z
			"/>
	</g>
	<g>
		<path fill="#663C35" d="M500.1,316.9c-0.6,2.4-1.4,4.6-2.2,6.8l-21.1-2c1.2-2.1,2.2-4.4,3-6.8L500.1,316.9z"/>
	</g>
	<g>
		<path fill="#663C35" d="M501.8,293.8h-20.2c0,0,0-0.1,0-0.1c-0.4-2.2-0.9-4.5-1.7-6.8c0,0,0,0,0-0.1h20.8c0.3,1.2,0.5,2.3,0.7,3.5
			C501.5,291.5,501.7,292.6,501.8,293.8z"/>
	</g>
	<g>
		<path fill="#663C35" d="M490.1,261.8h-24.5c-0.7-0.7-1.8-2.1-3.2-4c-0.6-0.9-1.3-1.9-2-3h25C487.1,257.1,488.6,259.5,490.1,261.8z
			"/>
	</g>
	<g>
		<path fill="#663C35" d="M478.8,246.5l-24-3c-0.3-0.9-0.6-1.8-0.9-2.7c-0.2-0.8-0.5-1.5-0.7-2.4c-0.2-0.7-0.4-1.5-0.5-2.3l21.8,2.7
			C475.8,242.3,477.6,244.9,478.8,246.5z"/>
	</g>
	<g>
		<path fill="#663C35" d="M472.3,233l-21-6.4c-0.1-2.3,0-4.7,0.2-7.3l19.8,6.1c0,2.2,0.3,4.3,0.7,6.2
			C472.1,232.1,472.2,232.5,472.3,233z"/>
	</g>
	<g>
		<path fill="#663C35" d="M496.8,274.8h-22.3c-1.3-2.3-2.8-4.7-4.4-7h23.4c0.5,0.8,0.9,1.7,1.3,2.5
			C495.5,271.8,496.1,273.3,496.8,274.8z"/>
	</g>
	<g>
		<path fill="#663C35" d="M502.2,302.4c0,0.8,0,1.6-0.1,2.4h-20.1c0.2-2.3,0.2-4.6,0-7h20.1C502.2,299.3,502.3,300.9,502.2,302.4z"
			/>
	</g>
</g>
<rect x="-64.2" y="346.8" fill="#FFFFFF" width="691" height="182"/>
<g>
	<path fill="#A39754" d="M226.8,306.2c0-1.3-1.1-2.3-2.3-2.3h-18.3c-1.3,0-2.3,1.1-2.3,2.3v1.3c0,1.3,1.1,2.3,2.3,2.3h18.3
		c1.3,0,2.3-1.1,2.3-2.3V306.2z M224.8,306.3c0,0.3-0.2,0.5-0.5,0.5h-16.1c-0.3,0-0.5-0.2-0.5-0.5v-0.1c0-0.3,0.2-0.5,0.5-0.5h16.1
		C224.6,305.8,224.8,306,224.8,306.3L224.8,306.3z"/>
	<g>
		<path fill="#898989" d="M224.4,321c-0.3-1.1-0.5-2.7-0.9-4.4c-0.6-3-1.2-6.4-1.8-8.2c-1-3.2-4.5-10.2-5.8-12.9l0-0.1
			c-0.1-0.1-0.2-0.2-0.4-0.2c-0.2,0-0.3,0.1-0.4,0.2c-1.1,2.1-4,7.5-5.9,12.8c-1.6,4.4-2.3,9.1-2.6,11.9c-0.1,0.4-0.1,0.7-0.1,1
			c0,0.2,0,0.3,0.1,0.4c0.2,0.2,0.5,0.2,0.7,0.1l9.2-5.9c0.3-0.2,0.7-0.3,1.1-0.3c0.6,0,1.1,0.2,1.5,0.6l0,0l4.5,5.4
			c0.1,0.1,0.2,0.1,0.4,0.1c0.2,0,0.3-0.1,0.4-0.2C224.4,321.4,224.5,321.3,224.4,321z"/>
		<path fill="#A39754" d="M224.8,321c-0.2-1.1-0.5-2.7-0.9-4.3c-0.6-3-1.2-6.4-1.8-8.2c-1-3.2-4.5-10.3-5.8-12.9l0-0.1
			c-0.1-0.3-0.4-0.4-0.7-0.4c-0.3,0-0.5,0.1-0.7,0.4c-1.1,2.1-4,7.5-6,12.8c-1.6,4.4-2.3,9.2-2.7,12c0,0.4-0.1,0.7-0.1,1
			c0,0.3,0,0.5,0.2,0.7c0.2,0.2,0.4,0.3,0.7,0.3c0.2,0,0.3,0,0.5-0.1l9.2-5.9c0.3-0.2,0.6-0.3,0.9-0.3c0.5,0,0.9,0.2,1.2,0.5
			l4.5,5.4l0,0c0.2,0.2,0.4,0.3,0.6,0.3c0.3,0,0.5-0.1,0.7-0.3C224.8,321.5,224.8,321.2,224.8,321z M223.5,321.5l-4.5-5.4l0,0
			c-0.4-0.4-0.9-0.6-1.5-0.6c-0.4,0-0.8,0.1-1.1,0.3l-9.2,5.9c-0.2,0.1-0.5,0.1-0.7-0.1c-0.1-0.1-0.1-0.3-0.1-0.4
			c0-0.3,0.1-0.6,0.1-1c0.4-2.8,1-7.5,2.6-11.9c1.9-5.3,4.8-10.7,5.9-12.8c0.1-0.1,0.2-0.2,0.4-0.2c0.2,0,0.3,0.1,0.4,0.2l0,0.1
			c1.3,2.7,4.8,9.7,5.8,12.9c0.5,1.8,1.2,5.2,1.8,8.2c0.3,1.6,0.6,3.2,0.9,4.4c0,0.2,0,0.4-0.1,0.4c-0.1,0.1-0.3,0.2-0.4,0.2
			C223.8,321.7,223.6,321.6,223.5,321.5z"/>
	</g>
</g>
</svg>
