<?xml version="1.0" encoding="utf-8"?>
<!-- Generator: Adobe Illustrator 18.1.1, SVG Export Plug-In . SVG Version: 6.00 Build 0)  -->
<svg version="1.1" id="Layer_1" xmlns="http://www.w3.org/2000/svg" xmlns:xlink="http://www.w3.org/1999/xlink" x="0px" y="0px"
	 viewBox="495.1 204.3 931.7 675.5" enable-background="new 495.1 204.3 931.7 675.5" xml:space="preserve">
<g id="sfE0cW_1_">
	<g>
		<path fill="#F6ECD6" d="M998.7,879.7c-22,0-44,0-65.9,0c-21.5-2.7-42.9-5.5-64.4-8.2c-0.8-0.5-1.6-1.3-2.5-1.5
			c-70.5-13.6-135-40.7-192-84.8c-41-31.7-74-70.1-97.7-116.5c-3.9-7.6-2.4-10.6,5-14.1c29-13.5,56.2-30.2,82.3-48.5
			c31-21.7,59.7-46.4,87.7-71.8c9.5-8.6,19.8-16.7,26.3-28.2c25.7-12.2,51.4-11.1,77.1,0.2c2.8,1.2,6.7,4.7,8.6,0.5
			c2.3-5-3.4-5.5-6.3-6.8c-20-9-40.8-11.6-62.4-7.6c4.6-9.5,13.5-15.2,20-23.1c9.6-11.5,20.5-22.1,28.5-35
			c12.1-12.2,23.2-25.3,32-40.1l0,0c3.6-2.6,7.2-5.2,8-10l0,0c3.1-1.9,5.6-4.2,6-8l0,0c8.4-8.1,15.1-17.4,20-28l0,0
			c2.5-1.2,3.9-3.2,4.1-6l0,0c5-3.5,8-8.4,10-14l0,0c2.5-1.2,3.8-3.3,4.1-6c12-14.5,21.3-30.9,31.3-46.7c4.2-6.6,5.8-4.3,8.5,0.1
			c6,9.5,11.9,19,17.8,28.6c0.2,2.8,1.5,4.8,4,6l0,0c0.4,3.9,2.9,6.2,6,8.1l0,0c3.5,7.5,7.4,14.7,14,20l0,0c10.9,18.7,23,36.4,38,52
			c0.6,0.7,1.2,1.3,1.7,2c0.7,3.8,3.2,6.1,6.2,8.2c5.6,10.6,13.3,19.5,21.7,27.8c0.6,2.6,1.8,4.7,4.4,5.8c1.2,2.6,3.2,4.6,5.6,6.2
			c0.6,2.6,1.8,4.7,4.4,5.7c1.8,3.5,4.4,6.1,7.6,8.2c0.5,2.6,1.8,4.7,4.4,5.7c2.8,3.2,5.6,6.4,8.4,9.7c6.2,7.1,14.2,12.8,17.5,22.2
			c-18.5-3.3-36.1,0.3-53.2,7.1c-3.5,1.4-10.7,2.1-8.4,7.4c2.5,5.8,7.3-0.2,10.8-1.4c22.1-7.7,44.1-12.1,66.5-1.3
			c0.7,1.1,1.2,2.4,2.1,3.3c28,28.8,57.4,55.9,89.3,80.3c13.6,10.4,26.3,22.3,42.5,28.9c11,10.7,24.6,17.3,38.2,23.9
			c2.1,2.5,4.8,3.6,7.9,4.1c6.1,4.5,12.8,7.7,20,10.1c2.2,2.3,4.9,3.4,8,3.9c1,1.5,2.5,1.7,4.1,1.8c0.5,3.9-1.6,7-3.2,10.3
			c-12.3,24.8-28,47.6-46.5,68c-47.1,51.9-104.4,88.5-170.4,112.1c-24.7,8.8-50,14.6-75.2,21.2c-12.7,1.7-25.7,2.7-38.2,5.4
			C1014.9,878.7,1006.3,875,998.7,879.7z M1110.5,597.9c7.7,1.8,11.9-3.6,16.2-8.3c4-4.4,0.7-5.4-3.2-5.8c7.5-16.4,4-30.8-9.5-38
			c-13.2-7.1-29-2.4-36,10.7c-7.7,14.3-2,29.2,14.6,37.6c-0.6,1.8-7.3,4.2-0.7,5.3C1097.7,600.4,1104.6,602,1110.5,597.9z
			 M834.8,593.5c0.4,1,0.8,1.9,1.2,2.9c0.3-1.4,0.6-2.8,0.9-4.2c0.6-0.4,1.2-0.8,1.8-1.2c0.5,1.7-0.5,5.3,1.1,5.1
			c4.8-0.8,8.4-4.4,10.4-8.6c1.3-2.8-2.1-3.3-4.4-3.6c3.5-7.3,5.6-14.8,2.8-23c-4.7-14-19.5-21.6-33.4-17
			c-13.6,4.5-20.9,18.7-16.8,32.6c3.9,13.4,18.9,23,30.4,19.5c2,0.8,4,1.5,4-1.9C833.5,593.9,834.2,593.7,834.8,593.5z
			 M1258.5,663.9c2.1-25.8-23.8-49.8-46.6-50.7c-35.7-1.4-55.2,24.6-54.7,50.8c0.5,29.7,23.1,49.3,50.5,49.7
			C1236.3,714.2,1258.5,692,1258.5,663.9z M721.2,713.9c29.4,0.6,50.9-22.3,51.7-50.4c0.8-26.6-25.8-49-44.7-50.1
			c-40.4-2.4-56.9,26.6-56.8,50C671.6,695.1,697.3,713.6,721.2,713.9z M962.4,707.6c15.9-0.1,30-12.8,30.9-27.8
			c0.2-3.7,0.8-7.8-4.3-8.4c-4.4-0.5-5.1,2.9-5.9,6.4c-3.1,13.1-10.1,19.4-21.2,19.3c-10.8-0.1-18-6.5-21.3-19.6
			c-0.9-3.5-1.8-6.8-6.1-6.1c-5.1,0.8-4.6,4.8-4.3,8.5C931.3,695.2,945.8,707.7,962.4,707.6z"/>
		<path fill="#F6ECD5" d="M548.9,606c-24.1-7.6-38.5-25.1-47.8-47.5c-2.5-6-4-12.3-6-18.5c0-7.3,0-14.7,0-22
			c3.3-10.6,4.8-21.7,10.7-31.4c12.5-20.5,29-35.6,53.4-40.4c-0.1,7.2-3.5,13.4-5.4,20.1c-10.2,34.8-13.2,70.1-9.4,106.3
			C545.6,583.8,549.4,594.7,548.9,606z"/>
		<path fill="#F6ECD5" d="M942.8,206.3c0-0.7,0-1.4,0-2c12.7,0,25.3,0,38,0c0,0.7,0,1.3,0,2C968.1,206.3,955.5,206.3,942.8,206.3z"
			/>
		<path fill="#E8E379" d="M942.8,206.3c12.6,0,25.3,0,37.9-0.1c3.3,0.2,6.7,0.5,10,0.7c2.4,7.8,6.2,4.8,10,1.2
			c5.3,0.3,10.7,0.5,16,0.8c0.7,2.9,1.9,4,4.1,1c4,0.3,7.9,0.6,11.9,0.9c0.7,2.8,1.8,4.1,4.1,1.1c3.3,0.3,6.6,0.6,9.9,0.9
			c0.7,2.7,1.7,4.1,4,1.2c2,0.2,4,0.5,6,0.7c0.7,2.8,1.7,4.2,4.1,1.2c2,0.3,3.9,0.5,5.9,0.8c0.6,2.8,1.7,4.3,4.1,1.2
			c2,0.3,3.9,0.6,5.9,0.9c0.6,2.6,1.5,4.2,4,1.3c1.3,0.2,2.7,0.4,4,0.6c0.6,2.6,1.5,4.3,4,1.3c11,1.6,21.5,5.2,32,8.8
			c7.7,8.4,17.5,11.5,28.6,11c8.4-0.2,15,5,22.1,8.3c29.2,13.5,56.7,30,82.3,49.5c1.2,1,2.1,2.4,3.2,3.6c-0.3,3.4,1.3,4.8,4.7,4.5
			c15.2,9.6,28.9,21,39.1,36c-0.3,4.8,0.8,8.4,6.7,8c15,14.9,25.9,32.8,37.6,50.1c-0.4,2.7,1,4,3.4,4.5c-0.2,4.5,3.8,7.4,4.7,11.5
			c-0.6,3.3,1.5,5.7,2.7,8.4c15.7,34.2,24.2,70,25.2,107.7c0.6,24.3-1.9,48.3-5.9,72.2c-3.6,12-7.2,23.9-10.8,35.9
			c-4.6,3.2-5.1,8.3-5.6,13.3c-0.6,0.2-1.3,0.5-1.9,0.7c-1.8,0-3.4,0.3-4.3,2.1c-3.1-0.5-5.8-1.6-8-3.9c-3.4-7.9-12.4-12.4-20-10.1
			c-3.1-0.5-5.9-1.6-7.9-4.1c-1.1-8-8.7-8.2-13.8-10.8c-8.2-4.3-13.9-13.3-24.4-13.1c-16.2-6.6-29-18.5-42.5-28.9
			c-31.9-24.4-61.3-51.5-89.3-80.3c-0.9-0.9-1.4-2.2-2.1-3.3c3.2-0.5,7.8,4.2,9.3-1.1c1.1-4.2-4.3-3.9-7-5.3
			c-5.6-2.9-11.6-4.7-17.8-5.4c-3.4-9.4-11.3-15.1-17.5-22.2c-2.8-3.2-5.6-6.4-8.4-9.7c0-3-0.2-5.9-4.4-5.7
			c-3.2-2.1-5.8-4.8-7.6-8.2c0-3-0.2-5.9-4.4-5.7c-2.4-1.5-4.4-3.5-5.6-6.2c0-3.1-0.1-6-4.4-5.8c-8.4-8.4-16.1-17.3-21.7-27.8
			c0.4-4.6-0.6-8.1-6.2-8.2c-0.6-0.7-1.2-1.3-1.7-2c0.2-2.7-0.3-5.1-2.1-7.4c-8.2-10.7-16-21.7-24.3-32.3
			c-3.5-4.4-4.2-11.5-11.6-12.3c0,0,0,0,0,0c-1.2-9.1-4.6-16.6-14-20c0,0,0,0,0,0c0.3-4.4-0.7-7.8-6-8.1c0,0,0,0,0,0
			c0.1-2.9,0.1-5.9-4-6c-5.9-9.5-11.9-19-17.8-28.6c-2.8-4.4-4.4-6.7-8.5-0.1c-10,15.8-19.4,32.2-31.4,46.7c-4.2,0-4.2,3-4.1,6
			c0,0,0,0,0,0c-7.3,1.9-9.4,7.4-10,14c0,0,0,0,0,0c-4.2,0-4.2,3-4.1,6c0,0,0,0,0,0c-10.1,6.9-16.7,16.3-20,28c0,0,0,0,0,0
			c-5.4,0.1-6.3,3.6-6,8c0,0,0,0,0,0c-6,0.7-8.3,4.3-8,10c0,0,0,0,0,0c-7.5,0.2-9,7.4-12.5,11.7c-7.2,8.9-16.6,16.5-19.5,28.4
			c-8,12.9-18.9,23.4-28.5,35c-6.5,7.8-15.4,13.6-20,23.1c-4.8,1.8-9.6,3.7-14.4,5.5c-4.4,1.7-5,4.5-2.7,8.3
			c-6.5,11.5-16.8,19.6-26.3,28.2c-28,25.4-56.6,50.2-87.7,71.8c-26.2,18.3-53.4,34.9-82.3,48.5c-7.4,3.4-8.9,6.4-5,14.1
			c23.7,46.4,56.7,84.7,97.7,116.5c57,44.1,121.5,71.3,192,84.8c0.9,0.2,1.6,1,2.5,1.5c-98.5,0.1-197.1,0.1-295.6,0.4
			c-8.3,0-7.9-4.3-7.9-10c0.1-59.9-1-119.9,0.5-179.8c0.7-27.3-7.6-51.5-16.5-76.1c0.5-11.4-3.3-22.2-4.5-33.4
			c-3.8-36.2-0.8-71.5,9.4-106.3c2-6.7,5.3-12.9,5.4-20.1c9.9-20.2,19-40.8,31.5-59.8c34.5-52.7,81.1-91.8,135.7-122.1
			c44.6-24.8,92.5-40.1,142.4-49.7c1.9-0.4,4-0.3,6-0.4c2.3,2.9,3.4,1.5,4-1.2c3.3-0.3,6.6-0.7,9.9-1c2.3,3.1,3.4,1.8,4.1-1.1
			c3.3-0.2,6.6-0.5,10-0.7c2.7,3,4.7,2.8,6-1.2c5.3-0.3,10.6-0.6,16-0.8c4.1,6,7.5,5.9,10-1.2C937.5,206.7,940.1,206.5,942.8,206.3z
			"/>
		<path fill="#E8E379" d="M1358.6,655.3c0.5-5,1-10,5.6-13.3c3.1,1.6,2.2,4.6,2.2,7.1c0,71.6,0,143.1,0.1,214.7c0,6-1.6,8.1-7.8,8
			c-99.2-0.3-198.4-0.3-297.6-0.4c25.2-6.6,50.6-12.4,75.2-21.2c66-23.6,123.3-60.2,170.4-112.1c18.5-20.4,34.2-43.2,46.5-68
			c1.6-3.3,3.7-6.4,3.2-10.3c0,0-0.1,0.1-0.1,0.1C1358.4,659,1358.4,657.1,1358.6,655.3z"/>
		<path fill="#F4E1DE" d="M1258.5,663.9c0,28-22.2,50.3-50.8,49.8c-27.3-0.4-49.9-20-50.5-49.7c-0.5-26.2,19-52.2,54.7-50.8
			C1234.7,614.1,1260.6,638.1,1258.5,663.9z"/>
		<path fill="#F4E1DE" d="M721.2,713.9c-23.9-0.3-49.6-18.8-49.7-50.6c-0.1-23.4,16.4-52.4,56.8-50c18.9,1.1,45.5,23.5,44.7,50.1
			C772.1,691.6,750.6,714.5,721.2,713.9z"/>
		<path fill="#50154A" d="M828.9,596c-11.5,3.5-26.5-6.1-30.4-19.5c-4.1-13.9,3.2-28.1,16.8-32.6c13.9-4.6,28.7,3,33.4,17
			c2.8,8.2,0.7,15.6-2.8,23c-2.4,2.4-4.8,4.7-7.1,7.1c-0.6,0.4-1.2,0.8-1.8,1.2c-0.7,0.4-1.4,0.9-2.1,1.3c-0.6,0.2-1.3,0.4-1.9,0.6
			C831.2,594,829.2,593.2,828.9,596z"/>
		<path fill="#4E1248" d="M1092.6,594.1c-16.6-8.4-22.3-23.3-14.6-37.6c7.1-13.1,22.9-17.8,36-10.7c13.4,7.2,17,21.7,9.5,38
			c-4.1,4.6-8.6,8.6-14.8,10.4C1103.3,594.2,1098,594.1,1092.6,594.1z"/>
		<path fill="#5B2353" d="M962.4,707.6c-16.5,0.1-31.1-12.4-32.3-27.7c-0.3-3.7-0.8-7.8,4.3-8.5c4.4-0.6,5.2,2.6,6.1,6.1
			c3.4,13.1,10.5,19.5,21.3,19.6c11.1,0.1,18.2-6.2,21.2-19.3c0.8-3.5,1.5-6.9,5.9-6.4c5.2,0.6,4.6,4.7,4.3,8.4
			C992.3,694.8,978.3,707.5,962.4,707.6z"/>
		<path fill="#67325B" d="M777.4,506.1c-2.4-3.8-1.8-6.6,2.7-8.3c4.8-1.8,9.6-3.7,14.4-5.5c21.6-4,42.4-1.4,62.4,7.6
			c2.9,1.3,8.7,1.8,6.3,6.8c-2,4.3-5.8,0.8-8.6-0.5C828.9,495,803.2,493.9,777.4,506.1z"/>
		<path fill="#663259" d="M1128.7,491.7c6.3,0.7,12.3,2.5,17.8,5.4c2.7,1.4,8.2,1.2,7,5.3c-1.4,5.4-6.1,0.6-9.3,1.1
			c-22.4-10.8-44.4-6.4-66.5,1.3c-3.4,1.2-8.3,7.1-10.8,1.4c-2.3-5.3,4.9-6,8.4-7.4C1092.5,492,1110.2,488.4,1128.7,491.7z"/>
		<path fill="#E8E379" d="M1008.6,338.2c7.4,0.8,8.1,7.9,11.6,12.3c8.3,10.6,16.1,21.6,24.3,32.3c1.8,2.3,2.3,4.7,2.1,7.4
			C1031.6,374.6,1019.5,356.9,1008.6,338.2z"/>
		<path fill="#E8E379" d="M842.9,434.3c2.9-11.9,12.3-19.5,19.5-28.4c3.5-4.3,5-11.5,12.5-11.7C866.1,409,855.1,422.1,842.9,434.3z"
			/>
		<path fill="#E8E379" d="M1278.2,616.1c10.6-0.2,16.2,8.8,24.4,13.1c5.1,2.6,12.7,2.8,13.8,10.8
			C1302.9,633.4,1289.2,626.8,1278.2,616.1z"/>
		<path fill="#D6C3BB" d="M1108.7,594.2c6.1-1.8,10.6-5.8,14.8-10.4c3.8,0.4,7.1,1.4,3.2,5.8c-4.3,4.7-8.4,10.1-16.2,8.3
			C1108.9,597.2,1108.7,595.8,1108.7,594.2z"/>
		<path fill="#E8E379" d="M888.9,376.2c3.3-11.7,9.9-21.1,20-28C904,358.8,897.3,368.1,888.9,376.2z"/>
		<path fill="#B598A0" d="M1108.7,594.2c0,1.5,0.2,2.9,1.8,3.7c-5.9,4.1-12.8,2.4-18.7,1.5c-6.6-1.1,0.1-3.5,0.7-5.3
			C1098,594.1,1103.3,594.2,1108.7,594.2z"/>
		<path fill="#E8E379" d="M1324.4,644.1c7.5-2.3,16.5,2.2,20,10.1C1337.2,651.8,1330.5,648.6,1324.4,644.1z"/>
		<path fill="#E8E379" d="M994.6,318.2c9.4,3.4,12.8,10.9,14,20C1002,332.9,998.2,325.7,994.6,318.2z"/>
		<path fill="#D6C3BB" d="M838.7,590.9c2.4-2.4,4.8-4.7,7.1-7.1c2.3,0.3,5.7,0.7,4.4,3.6c-2,4.2-5.6,7.8-10.4,8.6
			C838.2,596.3,839.3,592.7,838.7,590.9z"/>
		<path fill="#E8E379" d="M912.9,342.3c0.6-6.6,2.7-12.2,10-14C920.9,333.9,917.9,338.8,912.9,342.3z"/>
		<path fill="#E8E379" d="M874.9,394.2c-0.3-5.7,2-9.4,8-10C882.2,389.1,878.5,391.6,874.9,394.2z"/>
		<path fill="#E8E379" d="M882.9,384.2c-0.3-4.4,0.7-7.9,6-8C888.5,380.1,886,382.4,882.9,384.2z"/>
		<path fill="#E8E379" d="M1048.4,392.2c5.6,0,6.5,3.6,6.2,8.2C1051.6,398.4,1049.1,396,1048.4,392.2z"/>
		<path fill="#E8E379" d="M988.7,310.2c5.3,0.3,6.3,3.7,6,8.1C991.6,316.4,989.1,314.1,988.7,310.2z"/>
		<path fill="#E8E379" d="M1098.3,454.2c4.2-0.2,4.4,2.7,4.4,5.7C1100.1,458.9,1098.8,456.8,1098.3,454.2z"/>
		<path fill="#E8E379" d="M1086.3,440.2c4.2-0.2,4.4,2.7,4.4,5.7C1088.1,444.9,1086.9,442.8,1086.3,440.2z"/>
		<path fill="#E8E379" d="M1076.3,428.2c4.3-0.2,4.4,2.8,4.4,5.8C1078.1,432.9,1076.9,430.8,1076.3,428.2z"/>
		<path fill="#E8E379" d="M984.7,304.2c4.1,0.2,4.1,3.1,4,6C986.2,309,984.9,307,984.7,304.2z"/>
		<path fill="#E8E379" d="M922.9,328.3c-0.1-3-0.1-6,4.1-6C926.7,325,925.4,327,922.9,328.3z"/>
		<path fill="#E8E379" d="M908.9,348.2c-0.1-3-0.2-6,4.1-6C912.7,345,911.4,347,908.9,348.2z"/>
		<path fill="#E8E379" d="M1352.4,658.1c0.9-1.8,2.5-2.1,4.3-2.1c-0.1,1.3-0.2,2.7-0.3,4c0,0,0.1-0.1,0.1-0.1
			C1354.9,659.8,1353.4,659.6,1352.4,658.1z"/>
		<path fill="#D6C3BB" d="M828.9,596c0.3-2.8,2.3-2,4-1.9C832.9,597.5,830.9,596.8,828.9,596z"/>
		<path fill="#D6C3BB" d="M834.8,593.5c0.7-0.4,1.4-0.9,2.1-1.3c-0.3,1.4-0.6,2.8-0.9,4.2C835.6,595.4,835.2,594.4,834.8,593.5z"/>
		<path fill="#F6ECD5" d="M1375,606.2c4-23.9,6.5-47.8,5.9-72.2c-1-37.7-9.4-73.5-25.2-107.7c-1.2-2.7-3.3-5.1-2.7-8.4
			c8.2,5.4,8.8,15.1,12.6,23c1.9,3.8,3.6,6.2,7.7,8c51,21.7,69.5,82,38.4,127.8C1402.8,589.7,1390.9,600.9,1375,606.2z"/>
		<path fill="#E8E379" d="M1149.3,242c-11.1,0.5-20.9-2.6-28.6-11C1130.9,233,1140.5,236.2,1149.3,242z"/>
		<path fill="#E8E379" d="M1000.8,208.2c-3.8,3.5-7.6,6.6-10-1.2C994.2,206.7,997.7,205.6,1000.8,208.2z"/>
		<path fill="#E8E379" d="M1307.3,351.9c-5.9,0.4-7-3.2-6.7-8C1303.8,345.7,1306.1,348.4,1307.3,351.9z"/>
		<path fill="#E8E379" d="M1080.7,220.2c-2.4,2.9-3.4,1.3-4-1.3C1078.3,218.5,1079.7,218.8,1080.7,220.2z"/>
		<path fill="#E8E379" d="M1088.7,222.2c-2.5,3-3.4,1.3-4-1.3C1086.3,220.5,1087.7,220.8,1088.7,222.2z"/>
		<path fill="#E8E379" d="M1070.8,218c-2.4,3.1-3.4,1.6-4.1-1.2C1068.3,216.4,1069.7,216.7,1070.8,218z"/>
		<path fill="#E8E379" d="M1261.5,307.9c-3.3,0.4-5-1-4.7-4.5C1259.1,304.1,1260.7,305.6,1261.5,307.9z"/>
		<path fill="#E8E379" d="M1020.8,210c-2.2,3-3.4,1.8-4.1-1C1018.3,208.5,1019.7,208.7,1020.8,210z"/>
		<path fill="#F6ECD5" d="M1348.2,406.4c-2.4-0.5-3.8-1.8-3.4-4.5C1347.4,402.3,1348.6,403.8,1348.2,406.4z"/>
		<path fill="#E8E379" d="M1060.8,216.1c-2.4,3.1-3.4,1.6-4.1-1.2C1058.3,214.4,1059.7,214.7,1060.8,216.1z"/>
		<path fill="#E8E379" d="M1036.8,212c-2.3,3-3.4,1.8-4.1-1.1C1034.3,210.5,1035.7,210.7,1036.8,212z"/>
		<path fill="#E8E379" d="M1050.7,214.1c-2.3,2.9-3.4,1.5-4-1.2C1048.3,212.5,1049.7,212.8,1050.7,214.1z"/>
		<path fill="#E8E379" d="M934.8,206.9c-2.6,7-5.9,7.1-10,1.2C927.8,205.6,931.3,206.6,934.8,206.9z"/>
		<path fill="#E8E379" d="M908.8,209c-1.3,4.1-3.3,4.2-6,1.2C904.5,208.2,906.6,208.5,908.8,209z"/>
		<path fill="#E8E379" d="M892.8,210.9c-0.7,2.9-1.8,4.2-4.1,1.1C889.8,210.7,891.2,210.4,892.8,210.9z"/>
		<path fill="#E8E379" d="M878.8,213c-0.7,2.7-1.7,4.1-4,1.2C875.8,212.8,877.2,212.5,878.8,213z"/>
		<path fill="#F6ECD6" d="M1356.4,660c0.1-1.3,0.2-2.7,0.3-4c0.6-0.2,1.3-0.4,1.9-0.7C1358.4,657.1,1358.4,659,1356.4,660z"/>
	</g>
</g>
</svg>
